<svg width="123" height="73" viewBox="0 0 123 73" fill="none" xmlns="http://www.w3.org/2000/svg">
<g clip-path="url(#clip0)">
<path d="M85 30.4131V39.3081L62 51.9901L39 39.3081V30.4131L33 35.9991V68.0001H91V35.9991L85 30.4131Z" fill="#48A0DC"/>
<path d="M72.741 19L63.861 10.733C62.812 9.75698 61.187 9.75698 60.138 10.733L51.259 19H72.741Z" fill="#48A0DC"/>
<path d="M33.091 36.0499L90.602 67.7609C90.569 67.8889 90.573 67.8719 90.54 67.9999H33.129C33.058 67.9999 33 67.9419 33 67.8709V36.1039C33 36.0569 33.05 36.0269 33.091 36.0499Z" fill="#556080"/>
<path d="M90.909 36.0499L62 51.9899L90.602 67.7609C90.569 67.8879 90.573 67.8729 90.54 67.9999H90.871C90.942 67.9999 91 67.9419 91 67.8709V36.1029C91 36.0569 90.95 36.0269 90.909 36.0499Z" fill="#7383BF"/>
<path d="M62 51.99L85 39.308V19H39V39.308L62 51.99Z" fill="#F2ECBF"/>
<path d="M65 27H59C58.447 27 58 26.553 58 26C58 25.447 58.447 25 59 25H65C65.553 25 66 25.447 66 26C66 26.553 65.553 27 65 27Z" fill="#BAB395"/>
<path d="M75 27H69C68.447 27 68 26.553 68 26C68 25.447 68.447 25 69 25H75C75.553 25 76 25.447 76 26C76 26.553 75.553 27 75 27Z" fill="#BAB395"/>
<path d="M79.2222 35H73.7778C73.3477 35 73 34.553 73 34C73 33.447 73.3477 33 73.7778 33H79.2222C79.6523 33 80 33.447 80 34C80 34.553 79.6523 35 79.2222 35Z" fill="#BAB395"/>
<path d="M61.2222 47H55.7778C55.3477 47 55 46.553 55 46C55 45.447 55.3477 45 55.7778 45H61.2222C61.6523 45 62 45.447 62 46C62 46.553 61.6523 47 61.2222 47Z" fill="#BAB395"/>
<path d="M58.2222 44H52.7778C52.3477 44 52 43.553 52 43C52 42.447 52.3477 42 52.7778 42H58.2222C58.6523 42 59 42.447 59 43C59 43.553 58.6523 44 58.2222 44Z" fill="#BAB395"/>
<path d="M70.2222 39H64.7778C64.3477 39 64 38.553 64 38C64 37.447 64.3477 37 64.7778 37H70.2222C70.6523 37 71 37.447 71 38C71 38.553 70.6523 39 70.2222 39Z" fill="#BAB395"/>
<path d="M79.2222 39H73.7778C73.3477 39 73 38.553 73 38C73 37.447 73.3477 37 73.7778 37H79.2222C79.6523 37 80 37.447 80 38C80 38.553 79.6523 39 79.2222 39Z" fill="#BAB395"/>
<path d="M66 35H59C58.447 35 58 34.553 58 34C58 33.447 58.447 33 59 33H66C66.553 33 67 33.447 67 34C67 34.553 66.553 35 66 35Z" fill="#BAB395"/>
<path d="M61 39H54C53.447 39 53 38.553 53 38C53 37.447 53.447 37 54 37H61C61.553 37 62 37.447 62 38C62 38.553 61.553 39 61 39Z" fill="#BAB395"/>
<path d="M50 31H45C44.447 31 44 30.553 44 30C44 29.447 44.447 29 45 29H50C50.553 29 51 29.447 51 30C51 30.553 50.553 31 50 31Z" fill="#BAB395"/>
<path d="M50 39H45C44.447 39 44 38.553 44 38C44 37.447 44.447 37 45 37H50C50.553 37 51 37.447 51 38C51 38.553 50.553 39 50 39Z" fill="#BAB395"/>
<path d="M59 31H54C53.447 31 53 30.553 53 30C53 29.447 53.447 29 54 29H59C59.553 29 60 29.447 60 30C60 30.553 59.553 31 59 31Z" fill="#BAB395"/>
<path d="M71 31H63C62.447 31 62 30.553 62 30C62 29.447 62.447 29 63 29H71C71.553 29 72 29.447 72 30C72 30.553 71.553 31 71 31Z" fill="#BAB395"/>
<path d="M75 30.9875C74.74 30.9875 74.479 30.8775 74.29 30.6975C74.109 30.5065 74 30.2465 74 29.9875C74 29.7165 74.109 29.4665 74.29 29.2775C74.66 28.9075 75.34 28.9075 75.71 29.2775C75.89 29.4665 76 29.7165 76 29.9875C76 30.2475 75.89 30.5075 75.71 30.6975C75.52 30.8765 75.26 30.9875 75 30.9875Z" fill="#BAB395"/>
<path d="M79 30.9875C78.74 30.9875 78.479 30.8775 78.29 30.6975C78.109 30.5065 78 30.2465 78 29.9875C78 29.7165 78.109 29.4665 78.29 29.2775C78.66 28.9075 79.34 28.9075 79.71 29.2775C79.89 29.4665 80 29.7165 80 29.9875C80 30.2475 79.89 30.5075 79.71 30.6975C79.52 30.8765 79.26 30.9875 79 30.9875Z" fill="#BAB395"/>
<path d="M55 35H45C44.447 35 44 34.553 44 34C44 33.447 44.447 33 45 33H55C55.553 33 56 33.447 56 34C56 34.553 55.553 35 55 35Z" fill="#BAB395"/>
<path d="M55 27H45C44.447 27 44 26.553 44 26C44 25.447 44.447 25 45 25H55C55.553 25 56 25.447 56 26C56 26.553 55.553 27 55 27Z" fill="#BAB395"/>
<path d="M61 43.9875C60.74 43.9875 60.479 43.8865 60.29 43.6975C60.109 43.5065 60 43.2465 60 42.9875C60 42.7165 60.1 42.4665 60.29 42.2775C60.67 41.9075 61.34 41.9075 61.71 42.2775C61.899 42.4775 62 42.7275 62 42.9875C62 43.2475 61.89 43.5075 61.71 43.6975C61.52 43.8765 61.26 43.9875 61 43.9875Z" fill="#BAB395"/>
<path d="M70 34.9875C69.74 34.9875 69.479 34.8775 69.29 34.6975C69.109 34.5065 69 34.2465 69 33.9875C69 33.7165 69.109 33.4665 69.29 33.2775C69.66 32.9075 70.33 32.9075 70.71 33.2775C70.89 33.4665 71 33.7275 71 33.9875C71 34.2475 70.89 34.5075 70.71 34.6975C70.52 34.8765 70.26 34.9875 70 34.9875Z" fill="#BAB395"/>
<path d="M79 26.9875C78.74 26.9875 78.479 26.8775 78.29 26.6975C78.109 26.5065 78 26.2465 78 25.9875C78 25.7165 78.109 25.4665 78.29 25.2775C78.66 24.9075 79.33 24.9075 79.71 25.2775C79.89 25.4665 80 25.7275 80 25.9875C80 26.2475 79.89 26.5075 79.71 26.6975C79.52 26.8765 79.26 26.9875 79 26.9875Z" fill="#BAB395"/>
</g>
<path d="M2.5279 6.25966L7.55779 2.87584L7.97332 8.92376L2.5279 6.25966Z" stroke="#48A0DC"/>
<path d="M113.116 64.4014L119.178 64.3959L116.152 69.6486L113.116 64.4014Z" stroke="#E6E18F"/>
<circle cx="115" cy="7" r="2.5" stroke="#556080"/>
<circle cx="6" cy="66" r="2.5" stroke="#7383BF"/>
<defs>
<clipPath id="clip0">
<rect width="58" height="58" fill="white" transform="translate(33 10)"/>
</clipPath>
</defs>
</svg>
