<svg width="100" height="75" viewBox="0 0 100 75" fill="none" xmlns="http://www.w3.org/2000/svg">
<g clip-path="url(#clip0)">
<path d="M68.3156 29.5886V36.8171L51.5753 47.123L34.835 36.8171V29.5886L30.468 34.128V60.1334H72.6826V34.128L68.3156 29.5886Z" fill="#48A0DC"/>
<path d="M59.393 20.3139L52.9298 13.5958C52.1663 12.8027 50.9835 12.8027 50.22 13.5958L43.7576 20.3139H59.393Z" fill="#48A0DC"/>
<path d="M30.5343 34.1695L72.3929 59.9392C72.3689 60.0432 72.3718 60.0294 72.3478 60.1334H30.5619C30.5102 60.1334 30.468 60.0863 30.468 60.0286V34.2134C30.468 34.1752 30.5044 34.1508 30.5343 34.1695Z" fill="#556080"/>
<path d="M72.6165 34.1695L51.5754 47.123L72.393 59.9392C72.369 60.0424 72.3719 60.0302 72.3479 60.1334H72.5888C72.6405 60.1334 72.6827 60.0863 72.6827 60.0286V34.2126C72.6827 34.1752 72.6463 34.1508 72.6165 34.1695Z" fill="#7383BF"/>
<path d="M51.5752 47.123L68.3155 36.8171V20.314H34.835V36.8171L51.5752 47.123Z" fill="#F2ECBF"/>
<path d="M53.7589 26.815H49.3919C48.9894 26.815 48.6641 26.4517 48.6641 26.0023C48.6641 25.5529 48.9894 25.1897 49.3919 25.1897H53.7589C54.1614 25.1897 54.4868 25.5529 54.4868 26.0023C54.4868 26.4517 54.1614 26.815 53.7589 26.815Z" fill="#BAB395"/>
<path d="M61.0372 26.815H56.6702C56.2677 26.815 55.9424 26.4517 55.9424 26.0023C55.9424 25.5529 56.2677 25.1897 56.6702 25.1897H61.0372C61.4397 25.1897 61.7651 25.5529 61.7651 26.0023C61.7651 26.4517 61.4397 26.815 61.0372 26.815Z" fill="#BAB395"/>
<path d="M64.1103 33.3162H60.1476C59.8346 33.3162 59.5815 32.9529 59.5815 32.5036C59.5815 32.0542 59.8346 31.6909 60.1476 31.6909H64.1103C64.4234 31.6909 64.6764 32.0542 64.6764 32.5036C64.6764 32.9529 64.4234 33.3162 64.1103 33.3162Z" fill="#BAB395"/>
<path d="M51.0092 43.0679H47.0466C46.7335 43.0679 46.4805 42.7047 46.4805 42.2553C46.4805 41.8059 46.7335 41.4426 47.0466 41.4426H51.0092C51.3223 41.4426 51.5753 41.8059 51.5753 42.2553C51.5753 42.7047 51.3223 43.0679 51.0092 43.0679Z" fill="#BAB395"/>
<path d="M48.8256 40.6299H44.863C44.5499 40.6299 44.2969 40.2667 44.2969 39.8173C44.2969 39.3679 44.5499 39.0046 44.863 39.0046H48.8256C49.1387 39.0046 49.3917 39.3679 49.3917 39.8173C49.3917 40.2667 49.1387 40.6299 48.8256 40.6299Z" fill="#BAB395"/>
<path d="M57.5598 36.5667H53.5971C53.2841 36.5667 53.031 36.2034 53.031 35.754C53.031 35.3047 53.2841 34.9414 53.5971 34.9414H57.5598C57.8728 34.9414 58.1259 35.3047 58.1259 35.754C58.1259 36.2034 57.8728 36.5667 57.5598 36.5667Z" fill="#BAB395"/>
<path d="M64.1103 36.5667H60.1476C59.8346 36.5667 59.5815 36.2034 59.5815 35.754C59.5815 35.3047 59.8346 34.9414 60.1476 34.9414H64.1103C64.4234 34.9414 64.6764 35.3047 64.6764 35.754C64.6764 36.2034 64.4234 36.5667 64.1103 36.5667Z" fill="#BAB395"/>
<path d="M54.4868 33.3162H49.3919C48.9894 33.3162 48.6641 32.9529 48.6641 32.5036C48.6641 32.0542 48.9894 31.6909 49.3919 31.6909H54.4868C54.8893 31.6909 55.2146 32.0542 55.2146 32.5036C55.2146 32.9529 54.8893 33.3162 54.4868 33.3162Z" fill="#BAB395"/>
<path d="M50.8476 36.5667H45.7527C45.3502 36.5667 45.0249 36.2034 45.0249 35.754C45.0249 35.3047 45.3502 34.9414 45.7527 34.9414H50.8476C51.2501 34.9414 51.5754 35.3047 51.5754 35.754C51.5754 36.2034 51.2501 36.5667 50.8476 36.5667Z" fill="#BAB395"/>
<path d="M42.8414 30.0657H39.2022C38.7997 30.0657 38.4744 29.7025 38.4744 29.2531C38.4744 28.8037 38.7997 28.4404 39.2022 28.4404H42.8414C43.2439 28.4404 43.5692 28.8037 43.5692 29.2531C43.5692 29.7025 43.2439 30.0657 42.8414 30.0657Z" fill="#BAB395"/>
<path d="M42.8414 36.5667H39.2022C38.7997 36.5667 38.4744 36.2034 38.4744 35.754C38.4744 35.3047 38.7997 34.9414 39.2022 34.9414H42.8414C43.2439 34.9414 43.5692 35.3047 43.5692 35.754C43.5692 36.2034 43.2439 36.5667 42.8414 36.5667Z" fill="#BAB395"/>
<path d="M49.3919 30.0657H45.7527C45.3502 30.0657 45.0249 29.7025 45.0249 29.2531C45.0249 28.8037 45.3502 28.4404 45.7527 28.4404H49.3919C49.7944 28.4404 50.1198 28.8037 50.1198 29.2531C50.1198 29.7025 49.7944 30.0657 49.3919 30.0657Z" fill="#BAB395"/>
<path d="M58.126 30.0657H52.3033C51.9008 30.0657 51.5754 29.7025 51.5754 29.2531C51.5754 28.8037 51.9008 28.4404 52.3033 28.4404H58.126C58.5285 28.4404 58.8538 28.8037 58.8538 29.2531C58.8538 29.7025 58.5285 30.0657 58.126 30.0657Z" fill="#BAB395"/>
<path d="M61.0372 30.0556C60.8479 30.0556 60.658 29.9662 60.5204 29.8199C60.3887 29.6647 60.3093 29.4534 60.3093 29.2429C60.3093 29.0227 60.3887 28.8195 60.5204 28.6659C60.7897 28.3653 61.2846 28.3653 61.5539 28.6659C61.6849 28.8195 61.765 29.0227 61.765 29.2429C61.765 29.4542 61.6849 29.6655 61.5539 29.8199C61.4156 29.9653 61.2264 30.0556 61.0372 30.0556Z" fill="#BAB395"/>
<path d="M63.9485 30.0556C63.7593 30.0556 63.5693 29.9662 63.4318 29.8199C63.3 29.6647 63.2207 29.4534 63.2207 29.2429C63.2207 29.0227 63.3 28.8195 63.4318 28.6659C63.7011 28.3653 64.196 28.3653 64.4653 28.6659C64.5963 28.8195 64.6764 29.0227 64.6764 29.2429C64.6764 29.4542 64.5963 29.6655 64.4653 29.8199C64.327 29.9653 64.1378 30.0556 63.9485 30.0556Z" fill="#BAB395"/>
<path d="M46.4806 33.3162H39.2022C38.7997 33.3162 38.4744 32.9529 38.4744 32.5036C38.4744 32.0542 38.7997 31.6909 39.2022 31.6909H46.4806C46.8831 31.6909 47.2084 32.0542 47.2084 32.5036C47.2084 32.9529 46.8831 33.3162 46.4806 33.3162Z" fill="#BAB395"/>
<path d="M46.4806 26.815H39.2022C38.7997 26.815 38.4744 26.4517 38.4744 26.0023C38.4744 25.5529 38.7997 25.1897 39.2022 25.1897H46.4806C46.8831 25.1897 47.2084 25.5529 47.2084 26.0023C47.2084 26.4517 46.8831 26.815 46.4806 26.815Z" fill="#BAB395"/>
<path d="M50.8475 40.6198C50.6582 40.6198 50.4683 40.5377 50.3307 40.3841C50.199 40.2289 50.1196 40.0176 50.1196 39.8071C50.1196 39.5869 50.1924 39.3837 50.3307 39.2301C50.6073 38.9295 51.0949 38.9295 51.3642 39.2301C51.5018 39.3927 51.5753 39.5958 51.5753 39.8071C51.5753 40.0184 51.4952 40.2297 51.3642 40.3841C51.2259 40.5296 51.0367 40.6198 50.8475 40.6198Z" fill="#BAB395"/>
<path d="M57.398 33.306C57.2088 33.306 57.0188 33.2167 56.8812 33.0704C56.7495 32.9152 56.6702 32.7039 56.6702 32.4934C56.6702 32.2732 56.7495 32.07 56.8812 31.9164C57.1505 31.6157 57.6382 31.6157 57.9148 31.9164C58.0458 32.07 58.1258 32.2821 58.1258 32.4934C58.1258 32.7047 58.0458 32.916 57.9148 33.0704C57.7765 33.2158 57.5872 33.306 57.398 33.306Z" fill="#BAB395"/>
<path d="M63.9485 26.8048C63.7593 26.8048 63.5693 26.7154 63.4318 26.5692C63.3 26.4139 63.2207 26.2027 63.2207 25.9922C63.2207 25.772 63.3 25.5688 63.4318 25.4152C63.7011 25.1145 64.1887 25.1145 64.4653 25.4152C64.5963 25.5688 64.6764 25.7809 64.6764 25.9922C64.6764 26.2035 64.5963 26.4148 64.4653 26.5692C64.327 26.7146 64.1378 26.8048 63.9485 26.8048Z" fill="#BAB395"/>
</g>
<path d="M15.0501 20.5241L18.3984 18.0091L18.675 22.5041L15.0501 20.5241Z" stroke="#48A0DC"/>
<path d="M79.5167 55.6973L83.5533 55.6932L81.5382 59.5983L79.5167 55.6973Z" stroke="#E6E18F"/>
<path d="M83.1002 19.5012C83.1002 20.6247 82.296 21.4391 81.4167 21.4391C80.5373 21.4391 79.7332 20.6247 79.7332 19.5012C79.7332 18.3776 80.5373 17.5632 81.4167 17.5632C82.296 17.5632 83.1002 18.3776 83.1002 19.5012Z" stroke="#556080"/>
<path d="M19.0506 59.3207C19.0506 60.4443 18.2465 61.2587 17.3671 61.2587C16.4877 61.2587 15.6836 60.4443 15.6836 59.3207C15.6836 58.1972 16.4877 57.3828 17.3671 57.3828C18.2465 57.3828 19.0506 58.1972 19.0506 59.3207Z" stroke="#7383BF"/>
<defs>
<clipPath id="clip0">
<rect width="42.2146" height="47.1332" fill="white" transform="translate(30.468 13)"/>
</clipPath>
</defs>
</svg>
