<svg width="1440" height="424" viewBox="0 0 1440 424" fill="none" xmlns="http://www.w3.org/2000/svg">
<path fill-rule="evenodd" clip-rule="evenodd" d="M0 424H48C96 424 192 424 288 365.344C384 306.687 480 189.375 576 155.158C672 119.313 768 166.564 864 248.031C960 331.127 1056 448.44 1152 412.595C1248 376.749 1344 189.375 1392 96.5019L1440 2V2H1392C1344 2 1248 2 1152 2C1056 2 960 2 864 2C768 2 672 2 576 2C480 2 384 2 288 2C192 2 96 2 48 2H0V424Z" fill="#0099FF"/>
<path fill-rule="evenodd" clip-rule="evenodd" d="M0 211.166H60C120 211.166 240 211.166 360 269.643C480 328.12 600 445.073 720 420.708C840 397.967 960 233.907 1080 198.171C1200 164.06 1320 256.648 1380 303.754L1440 350.861V0H1380C1320 0 1200 0 1080 0C960 0 840 0 720 0C600 0 480 0 360 0C240 0 120 0 60 0H0V211.166Z" fill="#0099FF" fill-opacity="0.5"/>
</svg>
